<?xml version="1.0" encoding="UTF-8"?>
<svg xmlns="http://www.w3.org/2000/svg" xmlns:xlink="http://www.w3.org/1999/xlink" width="32px" height="32px" viewBox="0 0 32 32" version="1.1">
<g id="surface1">
<path style=" stroke:none;fill-rule:nonzero;fill:rgb(15.686275%,17.647059%,20%);fill-opacity:1;" d="M 7.578125 25.535156 C 7.304688 25.324219 7.039062 25.101562 6.78125 24.871094 L 7.445312 24.128906 C 7.683594 24.339844 7.933594 24.546875 8.1875 24.742188 Z M 6.035156 24.152344 C 5.792969 23.90625 5.5625 23.644531 5.34375 23.378906 L 6.113281 22.742188 C 6.316406 22.988281 6.53125 23.230469 6.753906 23.460938 Z M 4.714844 22.554688 C 4.515625 22.273438 4.324219 21.980469 4.148438 21.683594 L 5.003906 21.171875 C 5.167969 21.445312 5.34375 21.714844 5.53125 21.976562 Z M 3.648438 20.773438 C 3.496094 20.464844 3.351562 20.148438 3.222656 19.828125 L 4.148438 19.453125 C 4.269531 19.746094 4.402344 20.042969 4.542969 20.328125 Z M 2.867188 18.851562 C 2.765625 18.523438 2.671875 18.1875 2.589844 17.855469 L 3.566406 17.625 C 3.636719 17.933594 3.722656 18.246094 3.820312 18.550781 Z M 2.390625 16.835938 C 2.339844 16.496094 2.296875 16.148438 2.273438 15.804688 L 3.269531 15.726562 C 3.292969 16.046875 3.332031 16.367188 3.378906 16.679688 Z M 3.230469 14.765625 L 2.230469 14.765625 L 2.230469 14.734375 C 2.230469 14.402344 2.242188 14.0625 2.265625 13.730469 L 3.265625 13.804688 C 3.242188 14.113281 3.230469 14.425781 3.230469 14.734375 Z M 3.371094 12.847656 L 2.382812 12.699219 C 2.433594 12.359375 2.5 12.015625 2.578125 11.679688 L 3.550781 11.90625 C 3.480469 12.214844 3.417969 12.535156 3.371094 12.847656 Z M 3.804688 10.976562 L 2.847656 10.679688 C 2.953125 10.347656 3.070312 10.019531 3.199219 9.699219 L 4.125 10.074219 C 4.007812 10.367188 3.898438 10.671875 3.804688 10.976562 Z M 4.515625 9.195312 L 3.621094 8.753906 C 3.773438 8.445312 3.9375 8.136719 4.113281 7.839844 L 4.976562 8.347656 C 4.8125 8.625 4.65625 8.910156 4.515625 9.195312 Z M 5.496094 7.539062 L 4.675781 6.96875 C 4.875 6.683594 5.085938 6.40625 5.304688 6.140625 L 6.078125 6.773438 C 5.875 7.019531 5.679688 7.277344 5.496094 7.539062 Z M 6.714844 6.054688 L 5.988281 5.363281 C 6.226562 5.113281 6.476562 4.871094 6.734375 4.640625 L 7.402344 5.382812 C 7.164062 5.597656 6.933594 5.820312 6.714844 6.054688 Z M 8.140625 4.765625 L 7.527344 3.972656 C 7.800781 3.761719 8.085938 3.558594 8.371094 3.371094 L 8.921875 4.203125 C 8.65625 4.378906 8.394531 4.570312 8.140625 4.765625 Z M 9.746094 3.703125 L 9.257812 2.832031 C 9.558594 2.664062 9.871094 2.503906 10.183594 2.359375 L 10.601562 3.269531 C 10.3125 3.402344 10.023438 3.550781 9.746094 3.703125 Z M 11.488281 2.898438 L 11.140625 1.960938 C 11.460938 1.839844 11.792969 1.730469 12.125 1.632812 L 12.402344 2.59375 C 12.09375 2.683594 11.789062 2.785156 11.488281 2.898438 Z M 11.488281 2.898438 "/>
<path style=" stroke:none;fill-rule:nonzero;fill:rgb(15.686275%,17.647059%,20%);fill-opacity:1;" d="M 24.421875 25.535156 L 23.8125 24.742188 C 24.066406 24.546875 24.316406 24.339844 24.554688 24.128906 L 25.21875 24.875 C 24.964844 25.101562 24.695312 25.324219 24.421875 25.535156 Z M 25.964844 24.152344 L 25.246094 23.460938 C 25.46875 23.230469 25.683594 22.988281 25.886719 22.742188 L 26.65625 23.378906 C 26.4375 23.644531 26.207031 23.90625 25.964844 24.152344 Z M 27.285156 22.554688 L 26.46875 21.976562 C 26.65625 21.71875 26.832031 21.445312 26.996094 21.171875 L 27.851562 21.683594 C 27.675781 21.980469 27.484375 22.273438 27.285156 22.554688 Z M 28.351562 20.777344 L 27.457031 20.328125 C 27.597656 20.042969 27.730469 19.75 27.851562 19.453125 L 28.777344 19.832031 C 28.648438 20.148438 28.503906 20.46875 28.351562 20.777344 Z M 29.132812 18.855469 L 28.179688 18.550781 C 28.277344 18.246094 28.363281 17.933594 28.433594 17.625 L 29.410156 17.855469 C 29.328125 18.1875 29.234375 18.523438 29.132812 18.855469 Z M 29.609375 16.835938 L 28.621094 16.683594 C 28.667969 16.367188 28.707031 16.046875 28.730469 15.726562 L 29.726562 15.804688 C 29.703125 16.148438 29.660156 16.496094 29.609375 16.835938 Z M 28.769531 14.765625 L 28.769531 14.722656 C 28.769531 14.425781 28.757812 14.113281 28.734375 13.804688 L 29.734375 13.730469 C 29.757812 14.066406 29.769531 14.402344 29.769531 14.734375 Z M 28.628906 12.851562 C 28.582031 12.535156 28.519531 12.21875 28.449219 11.90625 L 29.421875 11.679688 C 29.5 12.019531 29.566406 12.359375 29.617188 12.699219 Z M 28.195312 10.976562 C 28.101562 10.675781 27.992188 10.371094 27.875 10.074219 L 28.804688 9.703125 C 28.929688 10.023438 29.046875 10.351562 29.152344 10.679688 Z M 27.484375 9.195312 C 27.34375 8.910156 27.1875 8.625 27.027344 8.347656 L 27.886719 7.839844 C 28.0625 8.136719 28.226562 8.445312 28.378906 8.753906 Z M 26.503906 7.539062 C 26.324219 7.28125 26.125 7.023438 25.925781 6.773438 L 26.699219 6.140625 C 26.917969 6.40625 27.128906 6.6875 27.324219 6.96875 Z M 25.285156 6.054688 C 25.066406 5.820312 24.835938 5.597656 24.597656 5.382812 L 25.265625 4.640625 C 25.523438 4.871094 25.773438 5.113281 26.011719 5.363281 Z M 23.859375 4.765625 C 23.605469 4.570312 23.34375 4.378906 23.078125 4.203125 L 23.628906 3.371094 C 23.914062 3.558594 24.199219 3.761719 24.472656 3.972656 Z M 22.253906 3.703125 C 21.976562 3.550781 21.6875 3.402344 21.398438 3.269531 L 21.816406 2.359375 C 22.132812 2.503906 22.441406 2.664062 22.742188 2.832031 Z M 20.511719 2.898438 C 20.214844 2.785156 19.90625 2.683594 19.597656 2.59375 L 19.878906 1.636719 C 20.210938 1.730469 20.539062 1.839844 20.863281 1.960938 Z M 20.511719 2.898438 "/>
<path style=" stroke:none;fill-rule:nonzero;fill:rgb(15.686275%,17.647059%,20%);fill-opacity:1;" d="M 21.460938 22.632812 C 19.667969 20.824219 18.59375 17.785156 18.59375 14.507812 C 18.597656 13.730469 18.65625 12.960938 18.773438 12.214844 L 19.761719 12.371094 C 19.652344 13.066406 19.597656 13.785156 19.59375 14.507812 C 19.59375 17.527344 20.558594 20.304688 22.171875 21.929688 Z M 21.460938 22.632812 "/>
<path style=" stroke:none;fill-rule:nonzero;fill:rgb(15.686275%,17.647059%,20%);fill-opacity:1;" d="M 10.539062 22.632812 L 9.828125 21.929688 C 11.441406 20.304688 12.40625 17.527344 12.40625 14.507812 C 12.40625 13.761719 12.34375 13.015625 12.226562 12.296875 L 13.214844 12.136719 C 13.339844 12.910156 13.40625 13.707031 13.40625 14.507812 C 13.40625 17.785156 12.332031 20.824219 10.539062 22.632812 Z M 10.539062 22.632812 "/>
<path style=" stroke:none;fill-rule:nonzero;fill:rgb(15.686275%,17.647059%,20%);fill-opacity:1;" d="M 24.265625 29.5 L 23.269531 29.421875 C 23.285156 29.222656 23.292969 29.058594 23.292969 28.902344 C 23.292969 27.285156 22.707031 25.773438 21.644531 24.640625 L 22.375 23.957031 C 23.609375 25.273438 24.292969 27.03125 24.292969 28.902344 C 24.292969 29.082031 24.285156 29.277344 24.265625 29.5 Z M 24.265625 29.5 "/>
<path style=" stroke:none;fill-rule:nonzero;fill:rgb(15.686275%,17.647059%,20%);fill-opacity:1;" d="M 7.734375 29.5 C 7.714844 29.273438 7.707031 29.082031 7.707031 28.902344 C 7.707031 27.03125 8.390625 25.273438 9.628906 23.957031 L 10.355469 24.640625 C 9.292969 25.773438 8.707031 27.285156 8.707031 28.902344 C 8.707031 29.054688 8.714844 29.21875 8.730469 29.417969 Z M 7.734375 29.5 "/>
<path style=" stroke:none;fill-rule:nonzero;fill:rgb(15.686275%,17.647059%,20%);fill-opacity:1;" d="M 23.832031 32 L 8.167969 32 C 7.550781 32 7.046875 31.5 7.046875 30.886719 L 7.046875 29.96875 C 7.046875 29.355469 7.550781 28.855469 8.167969 28.855469 L 10.769531 28.855469 L 10.769531 29.855469 L 8.167969 29.855469 C 8.101562 29.855469 8.046875 29.90625 8.046875 29.96875 L 8.046875 30.886719 C 8.046875 30.949219 8.101562 31 8.167969 31 L 23.832031 31 C 23.898438 31 23.953125 30.949219 23.953125 30.886719 L 23.953125 29.96875 C 23.953125 29.90625 23.898438 29.855469 23.832031 29.855469 L 17.777344 29.855469 L 17.777344 28.855469 L 23.832031 28.855469 C 24.449219 28.855469 24.953125 29.355469 24.953125 29.96875 L 24.953125 30.886719 C 24.953125 31.5 24.449219 32 23.832031 32 Z M 23.832031 32 "/>
<path style=" stroke:none;fill-rule:nonzero;fill:rgb(15.686275%,17.647059%,20%);fill-opacity:1;" d="M 15.097656 28.855469 L 16.542969 28.855469 L 16.542969 29.855469 L 15.097656 29.855469 Z M 15.097656 28.855469 "/>
<path style=" stroke:none;fill-rule:nonzero;fill:rgb(15.686275%,17.647059%,20%);fill-opacity:1;" d="M 16 3.796875 C 14.945312 3.796875 14.089844 2.945312 14.089844 1.898438 C 14.089844 0.851562 14.945312 0 16 0 C 17.054688 0 17.910156 0.851562 17.910156 1.898438 C 17.910156 2.945312 17.054688 3.796875 16 3.796875 Z M 16 1 C 15.496094 1 15.089844 1.402344 15.089844 1.898438 C 15.089844 2.394531 15.496094 2.796875 16 2.796875 C 16.503906 2.796875 16.910156 2.394531 16.910156 1.898438 C 16.910156 1.402344 16.503906 1 16 1 Z M 16 1 "/>
<path style=" stroke:none;fill-rule:nonzero;fill:rgb(15.686275%,17.647059%,20%);fill-opacity:1;" d="M 21.214844 6.8125 C 20.945312 6.8125 20.726562 6.601562 20.714844 6.335938 C 20.605469 5.90625 18.769531 3.871094 16 3.792969 C 13.230469 3.871094 11.394531 5.90625 11.285156 6.335938 C 11.277344 6.601562 11.054688 6.8125 10.785156 6.8125 C 10.511719 6.8125 10.285156 6.589844 10.285156 6.3125 C 10.285156 5.335938 12.753906 2.875 15.988281 2.792969 L 16.011719 2.792969 C 19.246094 2.875 21.714844 5.335938 21.714844 6.3125 C 21.714844 6.589844 21.488281 6.8125 21.214844 6.8125 Z M 21.214844 6.8125 "/>
<path style=" stroke:none;fill-rule:nonzero;fill:rgb(15.686275%,17.647059%,20%);fill-opacity:1;" d="M 13.179688 10.5 C 13.082031 10.5 12.984375 10.472656 12.898438 10.414062 C 11.085938 9.1875 10.285156 7.160156 10.289062 6.777344 C 10.289062 6.503906 10.519531 6.273438 10.792969 6.285156 C 11.050781 6.285156 11.261719 6.484375 11.285156 6.734375 C 11.34375 6.984375 11.976562 8.585938 13.457031 9.585938 C 13.6875 9.738281 13.746094 10.050781 13.59375 10.28125 C 13.496094 10.421875 13.339844 10.5 13.179688 10.5 Z M 13.179688 10.5 "/>
<path style=" stroke:none;fill-rule:nonzero;fill:rgb(15.686275%,17.647059%,20%);fill-opacity:1;" d="M 18.703125 10.578125 C 18.539062 10.578125 18.378906 10.496094 18.28125 10.347656 C 18.132812 10.113281 18.203125 9.804688 18.433594 9.65625 C 19.988281 8.664062 20.652344 6.996094 20.714844 6.734375 C 20.742188 6.484375 20.949219 6.285156 21.210938 6.285156 C 21.210938 6.285156 21.210938 6.285156 21.214844 6.285156 C 21.488281 6.285156 21.710938 6.503906 21.714844 6.777344 C 21.71875 7.179688 20.875 9.285156 18.972656 10.5 C 18.890625 10.550781 18.796875 10.578125 18.703125 10.578125 Z M 18.703125 10.578125 "/>
<path style=" stroke:none;fill-rule:nonzero;fill:rgb(15.686275%,17.647059%,20%);fill-opacity:1;" d="M 21.976562 24.824219 L 10.023438 24.824219 C 9.40625 24.824219 8.902344 24.324219 8.902344 23.710938 L 8.902344 22.792969 C 8.902344 22.179688 9.40625 21.679688 10.023438 21.679688 L 12.210938 21.679688 L 12.210938 22.679688 L 10.023438 22.679688 C 9.957031 22.679688 9.902344 22.730469 9.902344 22.792969 L 9.902344 23.710938 C 9.902344 23.773438 9.957031 23.824219 10.023438 23.824219 L 21.976562 23.824219 C 22.042969 23.824219 22.097656 23.773438 22.097656 23.710938 L 22.097656 22.792969 C 22.097656 22.730469 22.042969 22.679688 21.976562 22.679688 L 19.246094 22.679688 L 19.246094 21.679688 L 21.976562 21.679688 C 22.59375 21.679688 23.097656 22.179688 23.097656 22.792969 L 23.097656 23.710938 C 23.097656 24.324219 22.59375 24.824219 21.976562 24.824219 Z M 21.976562 24.824219 "/>
<path style=" stroke:none;fill-rule:nonzero;fill:rgb(15.686275%,17.647059%,20%);fill-opacity:1;" d="M 17.058594 21.679688 L 18.320312 21.679688 L 18.320312 22.679688 L 17.058594 22.679688 Z M 17.058594 21.679688 "/>
<path style=" stroke:none;fill-rule:nonzero;fill:rgb(15.686275%,17.647059%,20%);fill-opacity:1;" d="M 19.195312 12.902344 L 12.804688 12.902344 C 12.1875 12.902344 11.6875 12.402344 11.6875 11.789062 L 11.6875 10.871094 C 11.6875 10.253906 12.1875 9.757812 12.804688 9.757812 L 19.195312 9.757812 C 19.8125 9.757812 20.3125 10.253906 20.3125 10.871094 L 20.3125 11.789062 C 20.3125 12.402344 19.8125 12.902344 19.195312 12.902344 Z M 12.804688 10.757812 C 12.738281 10.757812 12.6875 10.808594 12.6875 10.871094 L 12.6875 11.789062 C 12.6875 11.851562 12.738281 11.902344 12.804688 11.902344 L 19.195312 11.902344 C 19.261719 11.902344 19.3125 11.851562 19.3125 11.789062 L 19.3125 10.871094 C 19.3125 10.808594 19.261719 10.757812 19.195312 10.757812 Z M 12.804688 10.757812 "/>
<path style=" stroke:none;fill-rule:nonzero;fill:rgb(15.686275%,17.647059%,20%);fill-opacity:1;" d="M 18.089844 5.8125 L 20.972656 5.8125 L 20.972656 6.8125 L 18.089844 6.8125 Z M 18.089844 5.8125 "/>
</g>
</svg>
